<svg width="60" height="60" fill="none" xmlns="http://www.w3.org/2000/svg"><path d="M50.906 29.5c0 .675.062 1.842 0 2.5C49.899 42.66 40.923 51 30 51a21.17 21.17 0 01-3-.213M34 30a4 4 0 01-4 4m4-4a4 4 0 00-4-4m4 4c1.5 2 4 1 6 2m-10 2a4 4 0 010-8m0 8c1.516 1.926 0 3.5 1 5.5M30 26c.95-2.385.032-3.702-1-6M6.148 13.5A28.866 28.866 0 001 30a28.9 28.9 0 002.591 12m8.743-35A28.874 28.874 0 0130 1c4.086 0 7.974.845 11.5 2.37M44.706 5C53.26 10.043 59 19.351 59 30c0 4.086-.845 7.974-2.37 11.5M50.5 25.424C48.412 16.027 40.026 9 30 9 18.402 9 9 18.402 9 30c0 8.179 4.676 15.266 11.5 18.733m31 .729C46.194 55.32 38.527 59 30 59c-10.102 0-18.998-5.166-24.19-13M32 26.5c1.538-1.343 1.5-3.5 4-4.5m-2 6c1.884-1.622 3.362-1.512 5-1.5m-6 6c1.35 2.212 2.3 3.079 4 4m-9-3c-1.876.917-2.56 1.972-3 5m1.5-7c-3-1-3.5 2.5-5.5 1.5m5.5-4c-1.5-1-3.295-2.249-6-1.5m7-.5c0-3-3.5-3.5-3-5.5M43 30c0 7.18-5.82 13-13 13s-13-5.82-13-13 5.82-13 13-13 13 5.82 13 13zM11 11a3 3 0 11-6 0 3 3 0 016 0zm16 39a3 3 0 11-6 0 3 3 0 016 0zm31-6a3 3 0 11-6 0 3 3 0 016 0zM45 4a2 2 0 11-4 0 2 2 0 014 0zm8 23a2 2 0 11-4 0 2 2 0 014 0zM7 44a2 2 0 11-4 0 2 2 0 014 0z" stroke="#52458A" stroke-width="2"/></svg>