<svg width="64" height="60" fill="none" xmlns="http://www.w3.org/2000/svg"><path d="M49 14.5c3.833 1.5 11.8 6.6 13 15 1.2 8.4-3.5 14.167-6 16V59H34m0 0v-6h-6c-1.333.167-4-.6-4-5v-6h-5.5l8-10.5M34 59H19v-6h-5c-1.667.167-5-.6-5-5v-6H3l8-10c-.167-2.833.7-9.4 5.5-13m10.75 6.5H39m-6-3V18m0 0c-1.5 0-2-1.5-2-1.5m2 1.5c1.5 0 2-1.5 2-1.5M32.5 5h1m-12 11h1m21 0h1M27.25 6.04l.5.867m10.5 0l.5-.866M23.04 10.25l.867.5m18.186 10.5l.866.5m-19.918 0l.866-.5m18.186-10.5l.866-.5M49 17c0 8.837-7.163 16-16 16s-16-7.163-16-16S24.163 1 33 1s16 7.163 16 16zm-9-1a7 7 0 10-11 5.745c.752.525 1 6.755 1 6.755 2.206.441 4 .5 6 0 0 0 .248-6.23 1-6.755A6.992 6.992 0 0040 16z" stroke="#52458A" stroke-width="2"/></svg>