<svg width="64" height="62" fill="none" xmlns="http://www.w3.org/2000/svg"><path d="M45 18l7-4.5L63 27l-6.5 5.5M45 18l-9.5-.5-8.5 2.125M45 18l11.5 14.5M52 42L36.5 26.5 30 26c-.667 1.167-2.3 4-3.5 6-1.5 2.5-3 2.5-5 1.5-1.6-.8-1.333-3-1-4l5-9.5 1.5-.375M52 42c.667.833 1.6 2.9 0 4.5s-3.667.667-4.5 0M52 42l4.5-9.5m-9 14l-8-8m8 8c.667.833 1.6 2.9 0 4.5s-3.667.667-4.5 0m0 0l-5.5-5.5M43 51c.667 1 1.6 3.3 0 4.5-1.6 1.2-3.333.833-4 .5m0 0l-3.5-3.5M39 56c.5 1 .837 2.663-.5 4-1.5 1.5-3.768.5-5.768-1.5M13.926 41.88L7.5 33.5m0 0L1 28l12-14.5 7.5 4.5m-13 15.5l13-15.5m0 0l6.5 1.625M32 13V1m6.5 12l9-9m-22 9l-9-9m.902 43.222l1.998-1.95a3.037 3.037 0 000-4.367 3.22 3.22 0 00-4.476 0l-1.997 1.95a3.037 3.037 0 000 4.367 3.22 3.22 0 004.475 0zm3.7 5.127l3.363-3.253a3.067 3.067 0 00-.005-4.394 3.22 3.22 0 00-4.476 0l-3.358 3.279a3.037 3.037 0 000 4.368 3.22 3.22 0 004.475 0zm4.866 4.017l3.102-3.028a3.037 3.037 0 000-4.368 3.22 3.22 0 00-4.476 0l-3.102 3.028a3.037 3.037 0 000 4.368 3.22 3.22 0 004.476 0zm5.13 3.73l1.975-1.929a3.037 3.037 0 000-4.368 3.22 3.22 0 00-4.475 0l-1.976 1.928a3.037 3.037 0 000 4.368 3.22 3.22 0 004.476 0z" stroke="#52458A" stroke-width="2" stroke-linecap="round" stroke-linejoin="round"/></svg>