<svg width="65" height="62" fill="none" xmlns="http://www.w3.org/2000/svg"><path d="M32.302 1l.871-.491a1 1 0 00-1.742 0l.871.491zM42.75 19.534l-.871.491a1 1 0 00.673.49l.198-.98zm20.856 4.208l.736.677a1 1 0 00-.539-1.657l-.197.98zm-14.4 15.663l-.736-.676a1 1 0 00-.257.791l.993-.115zm2.443 21.136l-.416.909a1 1 0 001.41-1.024l-.994.114zm-19.346-8.855l.416-.909a1 1 0 00-.832 0l.416.91zm-19.346 8.855l-.993-.115a1 1 0 001.41 1.024l-.417-.91zM15.4 39.404l.993.115a1 1 0 00-.257-.791l-.736.676zM1 23.742l-.198-.98a1 1 0 00-.538 1.657L1 23.742zm20.855-4.208l.198.98a1 1 0 00.674-.489l-.872-.49zm19.034 20.58v1h.975l.025-.974-1-.026zm-17 0l-1 .026.026.974h.974v-1zm17-3.5l.97-.244-.97.244zm-17 0l-.97-.244.97.244zm7.542-35.123l10.447 18.534 1.742-.982L33.173.51l-1.742.982zm11.12 19.024l20.856 4.208.395-1.96-20.855-4.209-.396 1.96zm20.317 2.55L48.47 38.73l1.473 1.353L64.34 24.42l-1.473-1.353zM48.212 39.52l2.443 21.135 1.987-.23-2.443-21.134-1.987.23zm3.852 20.111l-19.346-8.854-.832 1.819 19.346 8.854.832-1.819zm-20.178-8.854L12.54 59.631l.833 1.819 19.345-8.854-.832-1.819zM13.95 60.655l2.442-21.135-1.986-.23-2.443 21.136 1.987.23zm2.185-21.926L1.736 23.066.264 24.419l14.399 15.663 1.472-1.353zM1.198 24.723l20.855-4.208-.395-1.96L.802 22.761l.396 1.96zm21.529-4.698L33.173 1.491 31.431.509 20.984 19.043l1.743.982zm14.162 5.59c0 1.431-.468 2.538-1.214 3.285-.747.746-1.854 1.214-3.286 1.214v2c1.882 0 3.525-.625 4.7-1.8 1.175-1.175 1.8-2.818 1.8-4.7h-2zm-4.5 4.5c-1.432 0-2.539-.469-3.285-1.215-.747-.747-1.215-1.854-1.215-3.286h-2c0 1.882.625 3.525 1.8 4.7 1.176 1.175 2.819 1.8 4.7 1.8v-2zm-4.5-4.5c0-1.433.468-2.54 1.215-3.286.746-.747 1.853-1.215 3.285-1.215v-2c-1.881 0-3.524.625-4.7 1.8-1.175 1.176-1.8 2.819-1.8 4.7h2zm4.5-4.5c1.432 0 2.54.467 3.286 1.214.746.746 1.214 1.853 1.214 3.285h2c0-1.881-.625-3.524-1.8-4.7-1.175-1.175-2.818-1.8-4.7-1.8v2zm8.5 18h-17v2h17v-2zm-8.5-7c4.103 0 6.951 2.441 7.53 4.743l1.94-.488c-.85-3.374-4.654-6.256-9.47-6.256v2zm7.53 4.743c-.018-.074-.012-.093-.005.047.005.1.008.238.01.404.003.332.001.75-.004 1.165-.005.413-.013.817-.02 1.118l-.007.361-.003.1v.035l1 .026.999.026v-.037l.003-.102a132.24 132.24 0 00.028-1.503c.005-.42.008-.856.004-1.211a13.846 13.846 0 00-.013-.477 2.382 2.382 0 00-.052-.44l-1.94.488zm-16.03 3.256l1-.026v-.008l-.001-.026a37.949 37.949 0 01-.01-.462c-.007-.301-.015-.705-.02-1.118a53.473 53.473 0 01-.003-1.165c.001-.166.005-.303.01-.404.006-.14.013-.12-.006-.047l-1.94-.488a2.339 2.339 0 00-.052.44c-.007.136-.01.3-.012.477-.004.355-.002.791.003 1.211a134.427 134.427 0 00.028 1.503l.003.102v.037l1-.025zm.97-3.256c.58-2.302 3.427-4.744 7.53-4.744v-2c-4.816 0-8.62 2.882-9.47 6.256l1.94.488zm-1.47 9.256h18v-2h-18v2z" fill="#52458A"/></svg>