<svg width="316" height="455" viewBox="0 0 316 455" fill="none" xmlns="http://www.w3.org/2000/svg">
<g opacity="0.1">
<mask id="mask0" mask-type="alpha" maskUnits="userSpaceOnUse" x="-219" y="0" width="535" height="455">
<rect x="-219" width="535" height="454.813" fill="url(#paint0_linear)"/>
</mask>
<g mask="url(#mask0)">
<path d="M-167.627 352.235C-183.266 325.148 -173.468 286.607 -144.62 246.062C-115.8 205.558 -68.0772 163.229 -8.27332 128.701C51.5306 94.1731 112.05 74.0084 161.538 69.3018C211.075 64.5906 249.351 75.3763 264.99 102.464C280.629 129.552 270.832 168.093 241.983 208.637C213.163 249.142 165.44 291.471 105.637 325.999C45.8326 360.526 -14.687 380.691 -64.175 385.398C-113.711 390.109 -151.988 379.323 -167.627 352.235Z" stroke="white"/>
<path d="M-144.386 311.267C-150.127 301.323 -150.624 288.922 -146.518 274.952C-142.412 260.981 -133.715 245.485 -121.141 229.417C-95.9945 197.283 -55.4115 162.944 -5.34507 134.038C44.7213 105.132 94.7515 87.1557 135.153 81.4455C155.356 78.5901 173.124 78.8055 187.277 82.2356C201.428 85.6653 211.919 92.2959 217.66 102.239C223.401 112.183 223.898 124.584 219.792 138.554C215.687 152.526 206.989 168.021 194.415 184.09C169.269 216.223 128.686 250.563 78.6193 279.468C28.5529 308.374 -21.4773 326.351 -61.8791 332.061C-82.0814 334.916 -99.8501 334.701 -114.003 331.271C-128.154 327.841 -138.645 321.21 -144.386 311.267Z" stroke="white"/>
<path d="M-153.957 329.74C-160.725 318.017 -161.742 303.667 -157.72 287.708C-153.696 271.745 -144.637 254.205 -131.304 236.157C-104.639 200.063 -60.9384 162.015 -6.51523 130.594C47.9079 99.1726 102.708 80.351 147.3 75.3057C169.596 72.7829 189.316 73.7073 205.152 78.204C220.984 82.6998 232.903 90.7556 239.671 102.479C246.439 114.202 247.457 128.552 243.434 144.511C239.41 160.473 230.351 178.013 217.018 196.061C190.353 232.156 146.653 270.204 92.2296 301.625C37.8064 333.046 -16.9939 351.868 -61.5853 356.913C-83.8819 359.436 -103.602 358.511 -119.437 354.015C-135.27 349.519 -147.188 341.463 -153.957 329.74Z" stroke="white"/>
</g>
</g>
<defs>
<linearGradient id="paint0_linear" x1="144.662" y1="314.485" x2="-234.662" y2="-116.522" gradientUnits="userSpaceOnUse">
<stop stop-color="white"/>
<stop offset="1" stop-color="white" stop-opacity="0"/>
</linearGradient>
</defs>
</svg>
