<svg width="172" height="44" fill="none" xmlns="http://www.w3.org/2000/svg"><path d="M55.85 41.474C57.521 43.147 59.706 44 62.437 44c1.809 0 3.31-.478 4.471-1.434s1.741-2.184 1.741-3.652c.035-3.277-3.277-4.609-5.769-5.394-1.74-.649-3.14-1.468-3.14-2.697 0-1.4 1.16-2.15 2.935-2.15 1.605 0 3.38.58 4.37 1.536l1.331-2.39c-1.4-1.263-3.277-1.911-5.598-1.911-3.55 0-6.213 1.843-6.213 4.984 0 3.345 3.243 4.506 5.735 5.427 1.741.649 3.14 1.468 3.14 2.663 0 1.4-1.16 2.253-2.935 2.253-2.014 0-3.687-.683-5.087-2.014l-1.57 2.253zm17.452-4.199c0 3.448 1.604 5.12 3.345 5.872 1.263.512 2.22.614 3.278.614.239 0 .614-.034 1.16-.102v-2.936a4.351 4.351 0 01-2.628-.307c-.956-.444-1.844-1.468-1.844-3.516v-7.715h4.165v-2.697h-4.165v-4.916H73.37v4.916h-2.32v2.697h2.252v8.09zm14.496 6.315v-7.168c0-1.878.443-3.516 1.33-4.916.923-1.4 2.22-2.116 3.96-2.116.445 0 .786.034.957.068V26.18c-.376-.034-.649-.069-.888-.069-2.56 0-4.642 1.946-5.496 4.575h-.068l.102-1.263v-3.107h-3.209V43.59h3.312zm7.863-8.67c0 2.594.888 4.745 2.697 6.486 1.809 1.74 4.028 2.594 6.622 2.594 2.595 0 4.779-.853 6.589-2.594 1.809-1.741 2.696-3.892 2.696-6.486 0-2.595-.887-4.745-2.696-6.452-1.81-1.707-3.994-2.56-6.623-2.56-2.594 0-4.779.853-6.588 2.594-1.81 1.707-2.697 3.857-2.697 6.418zm3.38 0c0-1.775.58-3.243 1.706-4.404 1.161-1.16 2.561-1.74 4.233-1.74 1.639 0 3.038.58 4.199 1.74 1.161 1.16 1.741 2.629 1.741 4.404s-.58 3.243-1.741 4.437c-1.161 1.195-2.56 1.776-4.199 1.776-1.672 0-3.072-.58-4.233-1.741-1.126-1.195-1.707-2.663-1.707-4.472zm22.526 8.67v-8.056c0-1.74.478-3.277 1.434-4.608.956-1.332 2.219-2.014 3.755-2.014 2.356 0 2.97 1.604 2.97 4.335V43.59h3.311v-8.056c0-1.74.478-3.277 1.4-4.608.956-1.332 2.185-2.014 3.721-2.014 2.355 0 3.038 1.57 3.038 4.335V43.59h3.311V32.53c0-4.472-1.775-6.622-5.701-6.622a6.396 6.396 0 00-3.72 1.16c-1.127.785-1.912 1.707-2.424 2.765h-.068c-.581-2.628-2.322-3.925-5.155-3.925-1.297 0-2.526.41-3.653 1.229-1.126.819-1.911 1.775-2.355 2.833h-.068l.102-1.297v-2.356h-3.209V43.59h3.311zm29.565-20.755a1.673 1.673 0 100-3.345h-.068a1.673 1.673 0 100 3.345h.068zm1.638 20.755V26.317h-3.311V43.59h3.311zm6.865 0l3.619-5.769.512-.921h.068l.546.921 3.619 5.77h3.755l-5.906-8.876 5.564-8.398h-3.789l-3.209 5.257c-.17.307-.341.649-.58 1.024h-.068l-.547-1.024-3.208-5.257h-3.79l5.565 8.398-5.906 8.875h3.755zm-122.787 0l6.998-24.668 6.93 24.668h3.482L45.62 14.835h-3.584L33.4 43.59h3.448z" fill="#fff"/><path d="M60.457 5.383c.823 1.454 1.003 3.306.443 5.54-.562 2.245-1.855 4.788-3.84 7.468-3.968 5.358-10.538 11.044-18.794 15.717-8.255 4.674-16.512 7.38-23.148 8.025-3.32.323-6.165.122-8.38-.55-2.204-.67-3.699-1.778-4.522-3.232-.823-1.454-1.003-3.306-.443-5.54.563-2.246 1.855-4.788 3.84-7.468 3.969-5.358 10.539-11.044 18.794-15.718 8.256-4.673 16.512-7.38 23.149-8.024 3.32-.323 6.165-.123 8.379.55 2.204.67 3.7 1.778 4.522 3.232z" stroke="#fff" stroke-width="2.9"/></svg>