<svg width="316" height="455" fill="none" xmlns="http://www.w3.org/2000/svg"><g opacity=".1"><mask id="mask0" maskUnits="userSpaceOnUse" x="-219" y="0" width="535" height="455"><path fill="url(#paint0_linear)" d="M-219 0h535v454.813h-535z"/></mask><g mask="url(#mask0)" stroke="#fff"><path d="M-167.627 352.235c-15.639-27.087-5.841-65.628 23.007-106.173 28.82-40.504 76.543-82.833 136.347-117.361 59.804-34.528 120.323-54.693 169.811-59.4 49.537-4.71 87.813 6.075 103.452 33.163 15.639 27.088 5.842 65.629-23.007 106.173-28.82 40.505-76.543 82.834-136.346 117.362-59.804 34.527-120.324 54.692-169.812 59.399-49.536 4.711-87.813-6.075-103.452-33.163z"/><path d="M-144.386 311.267c-5.741-9.944-6.238-22.345-2.132-36.315 4.106-13.971 12.803-29.467 25.377-45.535 25.147-32.134 65.73-66.473 115.796-95.379C44.72 105.132 94.75 87.156 135.153 81.445c20.203-2.855 37.971-2.64 52.124.79 14.151 3.43 24.642 10.06 30.383 20.004s6.238 22.345 2.132 36.315c-4.105 13.972-12.803 29.467-25.377 45.536-25.146 32.133-65.729 66.473-115.796 95.378-50.066 28.906-100.096 46.883-140.498 52.593-20.202 2.855-37.971 2.64-52.124-.79-14.151-3.43-24.642-10.061-30.383-20.004z"/><path d="M-153.957 329.74c-6.768-11.723-7.785-26.073-3.763-42.032 4.024-15.963 13.083-33.503 26.416-51.551 26.665-36.094 70.366-74.142 124.789-105.563C47.908 99.173 102.708 80.351 147.3 75.306c22.296-2.523 42.016-1.599 57.852 2.898 15.832 4.496 27.751 12.552 34.519 24.275 6.768 11.723 7.786 26.073 3.763 42.032-4.024 15.962-13.083 33.502-26.416 51.55-26.665 36.095-70.365 74.143-124.788 105.564-54.424 31.421-109.224 50.243-153.815 55.288-22.297 2.523-42.017 1.598-57.852-2.898-15.833-4.496-27.751-12.552-34.52-24.275z"/></g></g><defs><linearGradient id="paint0_linear" x1="144.662" y1="314.485" x2="-234.662" y2="-116.522" gradientUnits="userSpaceOnUse"><stop stop-color="#fff"/><stop offset="1" stop-color="#fff" stop-opacity="0"/></linearGradient></defs></svg>